<svg version="1.1" xmlns="http://www.w3.org/2000/svg">
  <defs>

        <symbol id="bell" viewBox="0 0 100 100">
        <path d="M50.4 7.9c8.6.4 18.5 7.1 18.5 24.7 0 17.8 10.4 30.1 14.7 34.4v.7H17.2V67c4.3-4.3 14.7-16.6 14.7-34.4 0-17.6 10-24.3 18.5-24.7m0-5C38.6 3.4 27 12.8 27 32.6c0 19.8-14.7 32.2-14.7 32.2v7.8h76.2v-7.8S73.8 52.4 73.8 32.6c.1-19.8-11.5-29.2-23.4-29.7zm7.1 84.7c-1.2 2.7-3.9 4.5-7.1 4.5-3.1 0-5.8-1.9-7.1-4.5h14.2m5.5-4.9H37.8c-.1.6-.1 1.1-.1 1.7 0 7 5.7 12.7 12.7 12.7s12.7-5.7 12.7-12.7c0-.6 0-1.2-.1-1.7zm30.2-62.3c.6 0 1.1.2 1.5.7 7 7.6 7 25.7 0 33.3-.5.5-1 .7-1.5.7-.9 0-1.8-.6-2.1-1.5-.2-.5-.3-1.4.4-2.2 5.4-5.9 5.4-21.5 0-27.4-.8-.9-.7-1.7-.4-2.2.4-.8 1.3-1.4 2.1-1.4m-8.8 6.2c.6 0 1.1.2 1.5.7 7 7.6 7 13.3 0 20.9-.5.5-1 .7-1.5.7-.9 0-1.8-.6-2.1-1.5-.2-.5-.3-1.4.4-2.2 5.4-5.9 5.4-9.1 0-15-.8-.9-.7-1.7-.4-2.2.3-.8 1.2-1.4 2.1-1.4M6.8 55.2c-.6 0-1.1-.2-1.5-.7-7-7.6-7-25.7 0-33.3.5-.5 1-.7 1.5-.7.9 0 1.8.6 2.1 1.5.2.5.3 1.4-.4 2.2C3 30 3 45.6 8.5 51.5c.8.9.7 1.7.4 2.2-.4.8-1.3 1.5-2.1 1.5M16.9 49c-.6 0-1.1-.2-1.5-.7-7-7.6-7-13.3 0-20.9.5-.5 1-.7 1.5-.7.9 0 1.8.6 2.1 1.5.2.5.3 1.4-.4 2.2-5.4 5.9-5.4 9.1 0 15 .8.9.7 1.7.4 2.2-.3.8-1.2 1.4-2.1 1.4"/>
        </symbol>

    <symbol id="comparative" viewBox="0 0 100 100">
    <path d="M96.4 3.6H7.7V0H3.1v100h4.6v-3.6h39.2V67.1H7.7v-2.6h64.2V35.4H7.7v-2.6h89.2V3.6h-.5zM7.7 28.3V8.1h84.6v20.2H7.7zm0 31.7V39.8h59.6V60H7.7zm0 31.9V71.7h34.6v20.2H7.7z"/>
    </symbol>



    <symbol id="home" viewBox="0 0 32 32">
      <path d="M32 19l-6-6v-9h-4v5l-6-6-16 16v1h4v10h10v-6h4v6h10v-10h4z"></path>
    </symbol>
    <symbol id="camera" viewBox="0 0 32 32">
      <path
        d="M9.5 19c0 3.59 2.91 6.5 6.5 6.5s6.5-2.91 6.5-6.5-2.91-6.5-6.5-6.5-6.5 2.91-6.5 6.5zM30 8h-7c-0.5-2-1-4-3-4h-8c-2 0-2.5 2-3 4h-7c-1.1 0-2 0.9-2 2v18c0 1.1 0.9 2 2 2h28c1.1 0 2-0.9 2-2v-18c0-1.1-0.9-2-2-2zM16 27.875c-4.902 0-8.875-3.973-8.875-8.875s3.973-8.875 8.875-8.875c4.902 0 8.875 3.973 8.875 8.875s-3.973 8.875-8.875 8.875zM30 14h-4v-2h4v2z"></path>
    </symbol>
    <symbol id="headphones" viewBox="0 0 32 32">
      <path d="M9 18h-2v14h2c0.55 0 1-0.45 1-1v-12c0-0.55-0.45-1-1-1z"></path>
      <path d="M23 18c-0.55 0-1 0.45-1 1v12c0 0.55 0.45 1 1 1h2v-14h-2z"></path>
      <path class="handles"
        d="M32 16c0-8.837-7.163-16-16-16s-16 7.163-16 16c0 1.919 0.338 3.759 0.958 5.464-0.609 1.038-0.958 2.246-0.958 3.536 0 3.526 2.608 6.443 6 6.929v-13.857c-0.997 0.143-1.927 0.495-2.742 1.012-0.168-0.835-0.258-1.699-0.258-2.584 0-7.18 5.82-13 13-13s13 5.82 13 13c0 0.885-0.088 1.749-0.257 2.584-0.816-0.517-1.745-0.87-2.743-1.013v13.858c3.392-0.485 6-3.402 6-6.929 0-1.29-0.349-2.498-0.958-3.536 0.62-1.705 0.958-3.545 0.958-5.465z"></path>
    </symbol>
  </defs>
</svg>
